<svg class="logo" style="fill: rgb(32, 50, 96);" width="50px" height="50px" preserveAspectRatio="none" viewBox="5.629 7.741 200 200" xmlns="http://www.w3.org/2000/svg">
  <defs></defs>
  <g transform="matrix(1, 0, 0, 1, -64.715759, -31.604509)">
    <polygon points="199.396 146.881 188.255 142.647 188.828 130.737 181.382 140.073 170.204 135.838 176.734 145.804 169.309 155.153 180.837 151.956 187.355 161.92 187.912 149.992" style=""></polygon>
    <polygon points="180.206 87.847 170.631 98.18 170.631 133.898 180.206 124.778" style=""></polygon>
    <polygon points="128.084 61.228 128.084 148.988 137.659 158.109 137.659 71.561" style=""></polygon>
    <path d="M 151.361 82.395 L 141.714 72.468 L 141.714 78.017 L 141.714 131.177 L 141.711 131.177 L 141.711 136.727 L 141.711 166.712 L 141.711 172.262 L 141.714 172.262 L 141.714 172.282 L 141.714 176.699 C 141.729 177.036 141.759 177.37 141.783 177.704 L 141.841 182.248 C 142.228 191.052 145.769 199.034 151.361 205.097 L 151.361 82.395 Z" style=""></path>
    <path d="M 165.75 161.885 L 165.851 161.885 L 165.851 139.932 L 165.851 134.382 L 165.84 134.393 L 165.84 97.297 L 156.36 87.541 L 156.36 209.6 C 159.144 211.672 162.236 213.355 165.556 214.563 C 165.621 214.592 165.686 214.617 165.751 214.645 L 165.751 161.885 L 165.75 161.885 Z" style=""></path>
    <path d="M 211.941 177.317 C 209.517 165.612 201.369 156.642 190.998 152.699 C 192.146 153.377 193.244 154.141 194.284 154.982 C 197.952 158.269 200.311 163.029 200.345 168.371 C 200.423 178.365 192.355 186.533 182.368 186.587 C 177.748 186.631 173.86 184.854 171.007 181.943 L 171.007 216.447 C 175.71 217.634 180.741 217.822 185.809 216.793 C 196.647 214.584 205.169 207.361 209.49 198.044 C 209.644 197.764 209.798 197.484 209.945 197.2 L 209.864 197.2 C 212.475 191.142 213.34 184.26 211.941 177.317" style=""></path>
  </g>
</svg>